<?xml version="1.0" standalone="no"?>
<!DOCTYPE svg PUBLIC "-//W3C//DTD SVG 20010904//EN"
 "http://www.w3.org/TR/2001/REC-SVG-20010904/DTD/svg10.dtd">
<svg version="1.0" xmlns="http://www.w3.org/2000/svg"
 width="512.000000pt" height="512.000000pt" viewBox="0 0 512.000000 512.000000"
 preserveAspectRatio="xMidYMid meet">
<metadata>
Created by potrace 1.11, written by Peter Selinger 2001-2013
</metadata>
<g transform="translate(0.000000,512.000000) scale(0.100000,-0.100000)"
fill="#000000" stroke="none">
<path d="M2379 5116 c-2 -2 -33 -6 -69 -9 -77 -7 -270 -36 -280 -42 -4 -2 -22
-7 -41 -10 -51 -9 -205 -53 -282 -81 -898 -321 -1544 -1108 -1682 -2049 -15
-105 -20 -186 -19 -375 0 -184 3 -241 19 -345 3 -16 7 -43 9 -60 36 -253 165
-620 296 -840 16 -27 37 -63 46 -80 29 -53 125 -187 200 -280 385 -478 978
-822 1570 -910 22 -4 50 -8 64 -11 86 -15 172 -19 385 -18 212 1 257 4 387 27
348 62 639 173 943 360 137 85 311 224 445 358 411 410 681 972 737 1537 15
151 9 512 -11 627 -3 17 -8 44 -10 60 -3 17 -10 55 -16 85 -6 30 -14 66 -16
80 -18 88 -89 307 -139 425 -22 53 -111 231 -137 275 -35 59 -102 165 -108
170 -3 3 -17 21 -30 40 -106 156 -300 362 -471 500 -291 234 -623 401 -975
490 -120 31 -160 38 -349 66 -43 6 -460 15 -466 10z"/>
</g>
</svg>
